<?xml version="1.0" encoding="utf-8"?>
<!-- Generator: Adobe Illustrator 16.0.4, SVG Export Plug-In . SVG Version: 6.00 Build 0)  -->
<!DOCTYPE svg PUBLIC "-//W3C//DTD SVG 1.1//EN" "http://www.w3.org/Graphics/SVG/1.1/DTD/svg11.dtd">
<svg version="1.1" id="Layer_1" xmlns="http://www.w3.org/2000/svg" xmlns:xlink="http://www.w3.org/1999/xlink" x="0px" y="0px"
	 width="519px" height="55.667px" viewBox="0 0 519 55.667" enable-background="new 0 0 519 55.667" xml:space="preserve">
<!-- <rect fill="#1F4B99" height="100%" width="100%"/> -->
<path fill="#FFFFFF" d="M6.462,28.111c0-2.433,0.399-4.883,1.201-7.35c0.8-2.465,1.969-4.708,3.507-6.726
	c1.537-2.018,3.394-3.666,5.572-4.948c2.177-1.281,4.643-1.921,7.398-1.921h56.013c1.281,0,2.369,0.449,3.267,1.345
	c0.896,0.898,1.345,1.986,1.345,3.267c0,1.282-0.449,2.371-1.345,3.267c-0.897,0.898-1.986,1.345-3.267,1.345H26.158
	c-2.243,0-4.052,0.401-5.428,1.201c-1.378,0.801-2.466,1.777-3.267,2.93c-0.802,1.153-1.345,2.418-1.633,3.795
	c-0.288,1.378-0.433,2.642-0.433,3.795c0,1.153,0.145,2.418,0.433,3.795c0.288,1.378,0.832,2.642,1.633,3.795
	c0.8,1.153,1.889,2.13,3.267,2.93c1.376,0.802,3.186,1.201,5.428,1.201h53.995c1.281,0,2.369,0.449,3.267,1.345
	c0.896,0.898,1.345,1.986,1.345,3.267c0,1.282-0.449,2.371-1.345,3.267c-0.897,0.898-1.986,1.345-3.267,1.345H23.179
	c-2.627,0-4.964-0.64-7.013-1.921c-2.051-1.281-3.795-2.93-5.236-4.948c-1.441-2.018-2.546-4.275-3.315-6.773
	C6.846,32.915,6.462,30.481,6.462,28.111z"/>
<path fill="#FFFFFF" d="M133.091,23.884c2.498,0,4.708-0.111,6.629-0.336c1.922-0.224,3.971-0.848,6.149-1.874
	c2.177-1.024,4.66-2.561,7.446-4.612c2.786-2.049,6.26-4.9,10.424-8.551c1.088-0.896,2.177-1.345,3.267-1.345
	c1.28,0,2.369,0.449,3.267,1.345c0.896,0.898,1.345,1.986,1.345,3.267c0,0.706-0.177,1.378-0.528,2.018
	c-0.353,0.641-0.785,1.186-1.297,1.633c-4.035,3.588-7.638,6.55-10.809,8.887c-3.17,2.339-6.166,4.196-8.983,5.573
	c-2.819,1.378-5.572,2.354-8.263,2.93c-2.69,0.576-5.572,0.865-8.646,0.865c-3.267,0-6.262-0.272-8.983-0.817
	c-2.723-0.543-5.461-1.521-8.214-2.93c-2.755-1.408-5.702-3.282-8.839-5.621c-3.139-2.337-6.758-5.299-10.856-8.887
	c-0.514-0.447-0.946-0.992-1.297-1.633c-0.353-0.639-0.528-1.312-0.528-2.018c0-1.28,0.447-2.369,1.345-3.267
	c0.896-0.896,1.984-1.345,3.267-1.345c0.64,0,1.216,0.129,1.729,0.384c0.512,0.256,1.024,0.576,1.537,0.96
	c4.098,3.588,7.542,6.406,10.328,8.455c2.786,2.05,5.284,3.588,7.494,4.611c2.209,1.025,4.307,1.667,6.293,1.922
	C128.35,23.756,130.593,23.884,133.091,23.884z"/>
<path fill="#FFFFFF" d="M127.134,44.444c0-1.665,0.577-3.074,1.729-4.227s2.561-1.729,4.228-1.729c1.665,0,3.074,0.577,4.227,1.729
	s1.729,2.562,1.729,4.227c0,1.667-0.577,3.075-1.729,4.228s-2.562,1.729-4.227,1.729c-1.667,0-3.075-0.577-4.228-1.729
	S127.134,46.11,127.134,44.444z"/>
<path fill="#FFFFFF" d="M259.527,28.111c0,2.371-0.384,4.772-1.153,7.206c-0.769,2.435-1.874,4.645-3.315,6.629
	c-1.441,1.986-3.187,3.636-5.236,4.948c-2.05,1.313-4.388,2.034-7.013,2.162h-56.974c-1.282,0-2.371-0.447-3.267-1.345
	c-0.898-0.896-1.345-1.984-1.345-3.267V11.778c0-1.28,0.447-2.369,1.345-3.267c0.896-0.896,1.984-1.345,3.267-1.345h56.013
	c2.753,0,5.22,0.641,7.398,1.921c2.177,1.282,4.035,2.93,5.572,4.948c1.538,2.018,2.705,4.261,3.507,6.726
	C259.126,23.228,259.527,25.678,259.527,28.111z M190.448,16.39v23.443h49.383c2.177,0,3.971-0.399,5.38-1.201
	c1.408-0.8,2.513-1.777,3.314-2.93c0.8-1.153,1.345-2.417,1.633-3.795c0.288-1.377,0.433-2.642,0.433-3.795
	c0-1.153-0.145-2.417-0.433-3.795c-0.288-1.376-0.833-2.642-1.633-3.795c-0.802-1.153-1.906-2.129-3.314-2.93
	c-1.41-0.8-3.204-1.201-5.38-1.201H190.448z"/>
<path fill="#FFFFFF" d="M274.899,47.326c-0.961,1.153-2.147,1.729-3.556,1.729c-1.281,0-2.37-0.447-3.267-1.345
	c-0.897-0.896-1.345-1.984-1.345-3.267c0-1.153,0.32-2.081,0.961-2.786l23.347-31.417c1.088-1.473,2.529-2.674,4.323-3.603
	c1.793-0.928,3.714-1.393,5.765-1.393c1.922,0,3.747,0.417,5.477,1.249c1.729,0.833,3.138,1.986,4.228,3.459l23.347,31.225
	c0.384,0.449,0.704,0.946,0.96,1.489c0.256,0.545,0.385,1.138,0.385,1.777c0,1.282-0.449,2.371-1.345,3.267
	c-0.898,0.898-1.986,1.345-3.267,1.345c-1.537,0-2.755-0.608-3.651-1.825l-22.386-29.88c-0.449-0.512-1.009-1.072-1.682-1.682
	c-0.672-0.608-1.361-0.913-2.065-0.913c-0.705,0-1.393,0.305-2.065,0.913c-0.673,0.61-1.201,1.169-1.585,1.682L274.899,47.326z"/>
<path fill="#FFFFFF" d="M295.17,38.68c0-1.665,0.577-3.075,1.729-4.228c1.153-1.153,2.562-1.729,4.228-1.729
	c1.665,0,3.074,0.577,4.228,1.729c1.152,1.153,1.729,2.562,1.729,4.228c0,1.666-0.577,3.074-1.729,4.227
	c-1.153,1.153-2.562,1.729-4.228,1.729c-1.666,0-3.074-0.577-4.228-1.729C295.748,41.754,295.17,40.346,295.17,38.68z"/>
<path fill="#FFFFFF" d="M420.262,44.444c0,1.282-0.448,2.371-1.345,3.267c-0.897,0.898-1.986,1.345-3.267,1.345
	c-0.641,0-1.218-0.127-1.729-0.384c-0.514-0.255-0.994-0.576-1.441-0.961c-0.384-0.384-0.672-0.704-0.864-0.96
	c-2.627-3.267-5.332-5.828-8.118-7.686c-2.787-1.857-5.717-3.267-8.791-4.228c-3.075-0.961-6.326-1.552-9.752-1.777
	c-3.428-0.224-7.095-0.336-11.001-0.336h-19.6v11.721c0,1.282-0.466,2.371-1.394,3.267c-0.929,0.898-2.002,1.345-3.219,1.345
	c-1.281,0-2.37-0.447-3.267-1.345c-0.897-0.896-1.345-1.984-1.345-3.267V19.752c0-1.921,0.352-3.651,1.057-5.188
	c0.704-1.538,1.601-2.85,2.69-3.939c1.089-1.088,2.338-1.937,3.747-2.546c1.408-0.608,2.817-0.913,4.228-0.913h50.151
	c1.793,0,3.491,0.336,5.093,1.009c1.6,0.672,3.01,1.585,4.228,2.738c1.216,1.153,2.177,2.498,2.882,4.036
	c0.704,1.537,1.057,3.203,1.057,4.996c0,1.282-0.448,2.371-1.345,3.267c-0.897,0.898-1.986,1.345-3.267,1.345
	c-1.282,0-2.37-0.447-3.267-1.345c-0.897-0.896-1.345-1.984-1.345-3.267c0-0.96-0.337-1.761-1.009-2.402
	c-0.673-0.639-1.458-1.024-2.354-1.153h-50.344c-0.833,0-1.506,0.208-2.018,0.625c-0.514,0.417-0.833,0.913-0.961,1.489V23.5h19.6
	c5.636,0,10.728,0.321,15.276,0.96c4.547,0.641,8.662,1.682,12.346,3.123c3.683,1.441,6.98,3.331,9.896,5.668
	c2.914,2.339,5.524,5.205,7.83,8.599C419.941,42.683,420.262,43.548,420.262,44.444z"/>
<path fill="#FFFFFF" d="M437.747,47.71c-0.897,0.898-1.985,1.345-3.267,1.345s-2.37-0.447-3.267-1.345
	c-0.897-0.896-1.345-1.984-1.345-3.267V11.778c0-1.28,0.447-2.369,1.345-3.267c0.896-0.896,1.985-1.345,3.267-1.345
	c0.64,0,1.217,0.129,1.729,0.384c0.513,0.256,1.024,0.576,1.537,0.96c4.099,3.588,7.639,6.406,10.617,8.455
	c2.979,2.05,5.7,3.588,8.166,4.611c2.465,1.025,4.787,1.667,6.966,1.922c2.177,0.256,4.516,0.384,7.014,0.384
	s4.818-0.111,6.966-0.336c2.145-0.224,4.419-0.848,6.821-1.874c2.401-1.024,5.092-2.561,8.07-4.612
	c2.979-2.049,6.548-4.9,10.713-8.551c1.088-0.896,2.177-1.345,3.267-1.345c1.28,0,2.368,0.449,3.267,1.345
	c0.896,0.898,1.345,1.986,1.345,3.267v32.666c0,1.282-0.449,2.371-1.345,3.267c-0.898,0.898-1.986,1.345-3.267,1.345
	c-1.282,0-2.371-0.447-3.267-1.345c-0.898-0.896-1.346-1.984-1.346-3.267v-22.77c-2.882,2.306-5.653,4.228-8.311,5.765
	c-2.658,1.537-5.253,2.771-7.782,3.699c-2.531,0.93-5.044,1.585-7.542,1.97s-5.029,0.577-7.59,0.577
	c-2.755,0-5.396-0.192-7.927-0.577s-5.061-1.04-7.59-1.97c-2.531-0.928-5.092-2.162-7.686-3.699
	c-2.595-1.537-5.333-3.459-8.215-5.765v22.77C439.092,45.726,438.643,46.814,437.747,47.71z"/>
<path fill="#FFFFFF" d="M464.552,44.444c0-1.665,0.577-3.074,1.729-4.227c1.153-1.153,2.562-1.729,4.228-1.729
	c1.665,0,3.074,0.577,4.228,1.729c1.152,1.153,1.729,2.562,1.729,4.227c0,1.667-0.577,3.075-1.729,4.228
	c-1.153,1.153-2.562,1.729-4.228,1.729c-1.666,0-3.074-0.577-4.228-1.729C465.129,47.519,464.552,46.11,464.552,44.444z"/>
</svg>
