<svg xmlns:xlink="http://www.w3.org/1999/xlink" width="254" height="23" viewBox="0 0 254 23" fill="none" xmlns="http://www.w3.org/2000/svg">
<path d="M133.206 22.0366C133.915 22.0366 134.511 21.7468 134.994 21.1669L146.349 6.08923C146.542 5.83118 146.808 5.54999 147.146 5.24316C147.484 4.93738 147.83 4.78394 148.185 4.78394C148.539 4.78394 148.885 4.93738 149.223 5.24316C149.562 5.54999 149.843 5.83167 150.069 6.08923L161.327 21.1186C161.777 21.7307 162.39 22.0366 163.163 22.0366C163.807 22.0366 164.354 21.8117 164.806 21.36C165.256 20.9094 165.482 20.3616 165.482 19.7167C165.482 19.3953 165.417 19.097 165.288 18.8229C165.16 18.5498 164.999 18.2998 164.806 18.074L153.065 2.3681C152.516 1.6272 151.808 1.04724 150.938 0.628235C150.068 0.209717 149.151 0 148.184 0C147.153 0 146.187 0.233887 145.285 0.700684C144.383 1.16797 143.658 1.77203 143.111 2.51294L131.37 18.3154C131.048 18.67 130.887 19.1368 130.887 19.7167C130.887 20.3621 131.112 20.9094 131.563 21.36C132.014 21.8117 132.562 22.0366 133.206 22.0366Z" fill="#333333"></path>
<path d="M0 11.5019C0 10.2781 0.200684 9.04578 0.603943 7.80487C1.00629 6.565 1.59418 5.43683 2.36761 4.42175C3.14056 3.40674 4.0744 2.57782 5.16974 1.93298C6.26453 1.28864 7.50464 0.966736 8.89008 0.966736H37.0585C37.7027 0.966736 38.2498 1.19257 38.7014 1.64325C39.152 2.09497 39.3778 2.64221 39.3778 3.28656C39.3778 3.93134 39.152 4.47913 38.7014 4.92981C38.2503 5.38147 37.7027 5.60632 37.0585 5.60632H9.90491C8.77692 5.60632 7.86719 5.80804 7.17523 6.21039C6.48224 6.61334 5.93512 7.10425 5.53229 7.6842C5.12897 8.2641 4.8559 8.90039 4.71106 9.59302C4.56622 10.2861 4.49335 10.9219 4.49335 11.5019C4.49335 12.0818 4.56622 12.7181 4.71106 13.4107C4.8559 14.1039 5.12946 14.7396 5.53229 15.3196C5.93463 15.8995 6.48224 16.3909 7.17523 16.7933C7.86719 17.1968 8.77747 17.3975 9.90491 17.3975H37.0585C37.7027 17.3975 38.2498 17.6233 38.7014 18.074C39.152 18.5256 39.3778 19.0729 39.3778 19.7172C39.3778 20.3621 39.152 20.9099 38.7014 21.3605C38.2503 21.8122 37.7027 22.037 37.0585 22.037H8.4068C7.08569 22.037 5.91046 21.7151 4.88007 21.0708C3.84863 20.4265 2.97156 19.597 2.24689 18.582C1.52228 17.567 0.966553 16.4317 0.579834 15.1752C0.193115 13.9183 0 12.694 0 11.5019Z" fill="#333333"></path>
<path d="M63.6805 9.37573C64.9367 9.37573 66.0481 9.31989 67.0141 9.20673C67.9807 9.09406 69.0111 8.78021 70.1064 8.2641C71.2012 7.74908 72.4499 6.97595 73.8509 5.94434C75.252 4.9137 76.999 3.47968 79.093 1.64325C79.6402 1.19257 80.1878 0.966736 80.736 0.966736C81.3797 0.966736 81.9273 1.19257 82.3789 1.64325C82.8295 2.09497 83.0553 2.64221 83.0553 3.28656C83.0553 3.64166 82.9663 3.97968 82.7898 4.30157C82.6122 4.62396 82.395 4.89813 82.1375 5.12292C80.1084 6.92767 78.2964 8.41754 76.7018 9.59302C75.1077 10.7695 73.601 11.7036 72.1843 12.3962C70.7667 13.0893 69.3823 13.5803 68.029 13.8699C66.6762 14.1597 65.2269 14.3051 63.681 14.3051C62.038 14.3051 60.5319 14.1682 59.1635 13.8941C57.7941 13.621 56.4172 13.129 55.0328 12.4203C53.6473 11.7122 52.1653 10.7695 50.5877 9.59302C49.0092 8.41754 47.1892 6.92767 45.1284 5.12292C44.8699 4.89813 44.6526 4.62396 44.4761 4.30157C44.2986 3.98016 44.2106 3.64166 44.2106 3.28656C44.2106 2.6427 44.4354 2.09497 44.887 1.64325C45.3375 1.19257 45.8847 0.966736 46.5299 0.966736C46.8517 0.966736 47.1414 1.03162 47.3994 1.15991C47.6569 1.28864 47.9144 1.44958 48.1724 1.64276C50.2332 3.44751 51.9651 4.86493 53.3662 5.89557C54.7672 6.9267 56.0234 7.70026 57.1348 8.21484C58.2457 8.73041 59.3008 9.05334 60.2996 9.18158C61.2963 9.31134 62.4243 9.37573 63.6805 9.37573Z" fill="#333333"></path>
<path d="M61.5544 17.5911C60.975 18.1711 60.6849 18.8798 60.6849 19.7172C60.6849 20.5552 60.9745 21.2645 61.5544 21.8439C62.1342 22.4233 62.8423 22.7136 63.6806 22.7136C64.5179 22.7136 65.227 22.4238 65.8063 21.8439C66.3856 21.264 66.6758 20.5557 66.6758 19.7172C66.6758 18.8798 66.3861 18.1705 65.8063 17.5911C65.2265 17.0117 64.5179 16.7214 63.6806 16.7214C62.8423 16.7214 62.1337 17.0112 61.5544 17.5911Z" fill="#333333"></path>
<path fill-rule="evenodd" clip-rule="evenodd" d="M127.264 11.5019C127.264 12.6945 127.071 13.9022 126.684 15.1265C126.297 16.3512 125.742 17.4628 125.017 18.4608C124.292 19.4597 123.414 20.2896 122.384 20.9496C121.353 21.61 120.177 21.9727 118.857 22.037H90.2054C89.5607 22.037 89.013 21.8122 88.5624 21.3605C88.1108 20.9099 87.886 20.3625 87.886 19.7172V3.28656C87.886 2.6427 88.1108 2.09497 88.5624 1.64325C89.013 1.19257 89.5602 0.966736 90.2054 0.966736H118.374C119.758 0.966736 120.999 1.28912 122.094 1.93298C123.189 2.57782 124.123 3.40674 124.896 4.42175C125.67 5.43683 126.257 6.565 126.66 7.80487C127.062 9.04578 127.264 10.2781 127.264 11.5019ZM92.5247 5.60681V17.3979H117.359C118.454 17.3979 119.356 17.1973 120.064 16.7938C120.773 16.3915 121.328 15.9 121.731 15.3201C122.133 14.7401 122.407 14.1044 122.552 13.4113C122.697 12.7186 122.77 12.0823 122.77 11.5024C122.77 10.9224 122.697 10.2867 122.552 9.59351C122.407 8.90143 122.133 8.26465 121.731 7.68469C121.328 7.10474 120.773 6.61383 120.064 6.21094C119.355 5.80853 118.453 5.60681 117.359 5.60681H92.5247Z" fill="#333333"></path>
<path d="M145.188 16.818C145.188 15.9805 145.479 15.2713 146.058 14.6913C146.638 14.1114 147.346 13.8217 148.184 13.8217C149.021 13.8217 149.73 14.1119 150.31 14.6913C150.89 15.2713 151.18 15.98 151.18 16.818C151.18 17.6559 150.89 18.3642 150.31 18.9441C149.731 19.524 149.022 19.8138 148.184 19.8138C147.346 19.8138 146.638 19.5236 146.058 18.9441C145.479 18.3642 145.188 17.6559 145.188 16.818Z" fill="#333333"></path>
<path d="M207.42 21.3605C207.871 20.9099 208.096 20.3621 208.096 19.7172C208.096 19.2665 207.935 18.8315 207.612 18.4125C206.453 16.7053 205.14 15.2637 203.675 14.0873C202.208 12.9117 200.55 11.9611 198.698 11.2363C196.845 10.5115 194.776 9.98785 192.489 9.66547C190.202 9.34406 187.641 9.18262 184.807 9.18262H174.95V6.66968C175.015 6.37994 175.175 6.13043 175.434 5.92072C175.691 5.71094 176.03 5.60632 176.449 5.60632H201.766C202.217 5.6712 202.611 5.86487 202.95 6.18628C203.288 6.50867 203.457 6.91156 203.457 7.39447C203.457 8.03979 203.683 8.58704 204.134 9.03772C204.585 9.48944 205.132 9.71423 205.777 9.71423C206.421 9.71423 206.969 9.48944 207.42 9.03772C207.871 8.58704 208.096 8.03931 208.096 7.39447C208.096 6.49261 207.918 5.6546 207.564 4.88153C207.21 4.10791 206.727 3.4314 206.115 2.85144C205.503 2.27148 204.793 1.81226 203.989 1.47424C203.183 1.13574 202.329 0.966736 201.428 0.966736H176.207C175.498 0.966736 174.789 1.12018 174.081 1.42596C173.372 1.7323 172.744 2.1593 172.197 2.7066C171.649 3.25433 171.198 3.91425 170.844 4.68787C170.489 5.46094 170.312 6.33112 170.312 7.29736V19.7177C170.312 20.3631 170.538 20.9103 170.989 21.361C171.44 21.8127 171.987 22.0375 172.632 22.0375C173.244 22.0375 173.783 21.8127 174.25 21.361C174.717 20.9103 174.951 20.3625 174.951 19.7177V13.8222H184.808C186.772 13.8222 188.617 13.8785 190.34 13.9912C192.063 14.1044 193.698 14.4016 195.245 14.885C196.79 15.3683 198.264 16.0776 199.666 17.0117C201.067 17.9462 202.427 19.2344 203.748 20.8776C203.845 21.0064 203.989 21.1674 204.182 21.3605C204.407 21.5541 204.649 21.7156 204.907 21.8439C205.164 21.9731 205.454 22.037 205.777 22.037C206.421 22.037 206.969 21.8122 207.42 21.3605Z" fill="#333333"></path>
<path d="M216.889 21.36C216.438 21.8116 215.891 22.0365 215.246 22.0365C214.601 22.0365 214.054 21.8116 213.603 21.36C213.152 20.9093 212.927 20.3621 212.927 19.7167V3.2865C212.927 2.6427 213.151 2.09491 213.603 1.64325C214.054 1.19257 214.601 0.966675 215.246 0.966675C215.568 0.966675 215.858 1.03162 216.116 1.15985C216.374 1.28864 216.63 1.44958 216.888 1.6427C218.95 3.44745 220.73 4.86487 222.228 5.89551C223.726 6.92664 225.094 7.70026 226.334 8.21478C227.574 8.73035 228.742 9.05328 229.837 9.18158C230.932 9.3103 232.108 9.37469 233.365 9.37469C234.621 9.37469 235.788 9.31885 236.868 9.20569C237.946 9.09302 239.09 8.77917 240.298 8.26306C241.505 7.74805 242.859 6.97491 244.356 5.9433C245.854 4.91266 247.649 3.47864 249.744 1.64221C250.291 1.19153 250.839 0.965698 251.387 0.965698C252.03 0.965698 252.578 1.19153 253.03 1.64221C253.48 2.09393 253.706 2.64117 253.706 3.28552V19.7162C253.706 20.361 253.48 20.9088 253.03 21.3594C252.578 21.8112 252.031 22.036 251.387 22.036C250.742 22.036 250.194 21.8112 249.744 21.3594C249.292 20.9088 249.067 20.3615 249.067 19.7162V8.26306C247.618 9.42297 246.224 10.3897 244.887 11.1628C243.551 11.9359 242.246 12.5566 240.974 13.0234C239.701 13.4911 238.437 13.8206 237.181 14.0143C235.925 14.2079 234.652 14.3045 233.364 14.3045C231.979 14.3045 230.651 14.2079 229.378 14.0143C228.105 13.8206 226.833 13.4911 225.561 13.0234C224.288 12.5566 223 11.9359 221.696 11.1628C220.391 10.3897 219.014 9.42297 217.564 8.26306V19.7162C217.565 20.3621 217.34 20.9093 216.889 21.36Z" fill="#333333"></path>
<path d="M231.238 17.5911C230.659 18.1711 230.369 18.8798 230.369 19.7172C230.369 20.5552 230.659 21.264 231.238 21.8439C231.819 22.4233 232.527 22.7136 233.365 22.7136C234.202 22.7136 234.911 22.4238 235.491 21.8439C236.07 21.264 236.36 20.5557 236.36 19.7172C236.36 18.8798 236.07 18.1711 235.491 17.5911C234.911 17.0117 234.202 16.7214 233.365 16.7214C232.527 16.7214 231.818 17.0112 231.238 17.5911Z" fill="#333333"></path>
</svg>